<svg width="54" height="60" viewBox="0 0 54 60" fill="none" xmlns="http://www.w3.org/2000/svg">
<path d="M27 47.5833C27.8264 47.5833 28.5196 47.3033 29.0796 46.7433C29.6376 46.1853 29.9167 45.4931 29.9167 44.6667C29.9167 43.8403 29.6376 43.1471 29.0796 42.5871C28.5196 42.029 27.8264 41.75 27 41.75C26.1736 41.75 25.4814 42.029 24.9233 42.5871C24.3633 43.1471 24.0833 43.8403 24.0833 44.6667C24.0833 45.4931 24.3633 46.1853 24.9233 46.7433C25.4814 47.3033 26.1736 47.5833 27 47.5833ZM24.0833 35.9167H29.9167V18.4167H24.0833V35.9167ZM6.58333 59.25C4.97917 59.25 3.60542 58.6793 2.46208 57.5379C1.32069 56.3946 0.75 55.0208 0.75 53.4167V12.5833C0.75 10.9792 1.32069 9.60542 2.46208 8.46209C3.60542 7.3207 4.97917 6.75001 6.58333 6.75001H18.8333C19.4653 5.00001 20.5231 3.59028 22.0067 2.52084C23.4883 1.45139 25.1528 0.916672 27 0.916672C28.8472 0.916672 30.5126 1.45139 31.9963 2.52084C33.4779 3.59028 34.5347 5.00001 35.1667 6.75001H47.4167C49.0208 6.75001 50.3946 7.3207 51.5379 8.46209C52.6793 9.60542 53.25 10.9792 53.25 12.5833V53.4167C53.25 55.0208 52.6793 56.3946 51.5379 57.5379C50.3946 58.6793 49.0208 59.25 47.4167 59.25H6.58333ZM27 10.3958C27.6319 10.3958 28.155 10.1888 28.5692 9.77459C28.9814 9.36237 29.1875 8.84028 29.1875 8.20834C29.1875 7.57639 28.9814 7.05334 28.5692 6.63917C28.155 6.22695 27.6319 6.02084 27 6.02084C26.3681 6.02084 25.846 6.22695 25.4338 6.63917C25.0196 7.05334 24.8125 7.57639 24.8125 8.20834C24.8125 8.84028 25.0196 9.36237 25.4338 9.77459C25.846 10.1888 26.3681 10.3958 27 10.3958Z" fill="#1C1B1F"/>
</svg>
